<?xml version="1.0" encoding="UTF-8" standalone="no"?>
<!DOCTYPE svg PUBLIC "-//W3C//DTD SVG 1.1//EN" "http://www.w3.org/Graphics/SVG/1.1/DTD/svg11.dtd">
<svg width="100%" height="100%" viewBox="0 0 316 60" version="1.1" xmlns="http://www.w3.org/2000/svg" xmlns:xlink="http://www.w3.org/1999/xlink" xml:space="preserve" xmlns:serif="http://www.serif.com/" style="fill-rule:evenodd;clip-rule:evenodd;stroke-linejoin:round;stroke-miterlimit:1.41421;">
    <g transform="matrix(0.758137,0,0,0.758137,-132.971,-1154.36)">
        <path d="M195.689,1546.94C194.556,1547.01 193.739,1547.14 193.239,1547.34C192.739,1547.54 192.398,1547.93 192.214,1548.49C192.031,1549.06 191.939,1549.98 191.939,1551.24L191.939,1576.04C191.939,1577.31 192.031,1578.23 192.214,1578.79C192.398,1579.36 192.739,1579.74 193.239,1579.94C193.739,1580.14 194.556,1580.28 195.689,1580.34L195.689,1581.34C193.889,1581.24 191.373,1581.19 188.139,1581.19C184.573,1581.19 181.939,1581.24 180.239,1581.34L180.239,1580.34C181.339,1580.28 182.148,1580.14 182.664,1579.94C183.181,1579.74 183.531,1579.36 183.714,1578.79C183.898,1578.23 183.989,1577.31 183.989,1576.04L183.989,1551.24C183.989,1549.98 183.898,1549.06 183.714,1548.49C183.531,1547.93 183.181,1547.54 182.664,1547.34C182.148,1547.14 181.339,1547.01 180.239,1546.94L180.239,1545.94C181.939,1546.04 184.573,1546.09 188.139,1546.09C191.373,1546.09 193.889,1546.04 195.689,1545.94L195.689,1546.94Z" style="fill:white;fill-rule:nonzero;"/>
    </g>
    <g transform="matrix(0.758137,0,0,0.758137,-132.971,-1154.36)">
        <path d="M231.989,1546.94C230.889,1547.11 230.081,1547.39 229.564,1547.79C229.048,1548.19 228.698,1548.83 228.514,1549.69C228.331,1550.56 228.239,1551.84 228.239,1553.54L228.239,1581.44L227.039,1581.39L225.689,1581.44L203.989,1553.94L203.989,1573.14C203.989,1575.11 204.089,1576.55 204.289,1577.47C204.489,1578.39 204.923,1579.05 205.589,1579.47C206.256,1579.89 207.339,1580.18 208.839,1580.34L208.839,1581.34C207.539,1581.24 205.739,1581.19 203.439,1581.19C201.606,1581.19 200.156,1581.24 199.089,1581.34L199.089,1580.34C200.189,1580.18 200.998,1579.89 201.514,1579.49C202.031,1579.09 202.381,1578.46 202.564,1577.59C202.748,1576.73 202.839,1575.44 202.839,1573.74L202.839,1551.24C202.839,1549.98 202.748,1549.06 202.564,1548.49C202.381,1547.93 202.031,1547.54 201.514,1547.34C200.998,1547.14 200.189,1547.01 199.089,1546.94L199.089,1545.94C200.156,1546.04 201.606,1546.09 203.439,1546.09C205.106,1546.09 206.539,1546.04 207.739,1545.94L227.089,1569.79L227.089,1554.14C227.089,1552.18 226.989,1550.74 226.789,1549.82C226.589,1548.9 226.156,1548.24 225.489,1547.82C224.823,1547.4 223.739,1547.11 222.239,1546.94L222.239,1545.94C223.539,1546.04 225.339,1546.09 227.639,1546.09C229.506,1546.09 230.956,1546.04 231.989,1545.94L231.989,1546.94Z" style="fill:white;fill-rule:nonzero;"/>
    </g>
    <g transform="matrix(0.758137,0,0,0.758137,-134.75,-1154.36)">
        <path d="M284.339,1545.94C284.106,1549.11 283.989,1551.94 283.989,1554.44C283.989,1556.01 284.039,1557.28 284.139,1558.24L282.989,1558.24C282.189,1554.14 281.098,1551.26 279.714,1549.59C278.331,1547.93 276.439,1547.09 274.039,1547.09L272.889,1547.09L272.889,1575.64C272.889,1577.04 273.031,1578.06 273.314,1578.69C273.598,1579.33 274.098,1579.75 274.814,1579.97C275.531,1580.19 276.673,1580.31 278.239,1580.34L278.239,1581.34C274.039,1581.24 270.873,1581.19 268.739,1581.19C266.639,1581.19 263.589,1581.24 259.589,1581.34L259.589,1580.34C261.156,1580.31 262.298,1580.19 263.014,1579.97C263.731,1579.75 264.231,1579.33 264.514,1578.69C264.798,1578.06 264.939,1577.04 264.939,1575.64L264.939,1547.09L263.839,1547.09C262.239,1547.09 260.881,1547.44 259.764,1548.14C258.648,1548.84 257.689,1550 256.889,1551.62C256.089,1553.24 255.406,1555.44 254.839,1558.24L253.689,1558.24C253.789,1557.28 253.839,1556.01 253.839,1554.44C253.839,1551.94 253.723,1549.11 253.489,1545.94C256.523,1546.04 261.673,1546.09 268.939,1546.09C276.206,1546.09 281.339,1546.04 284.339,1545.94Z" style="fill:white;fill-rule:nonzero;"/>
    </g>
    <g transform="matrix(0.758137,0,0,0.758137,-136.528,-1154.36)">
        <path d="M302.789,1546.94C301.656,1547.01 300.839,1547.14 300.339,1547.34C299.839,1547.54 299.498,1547.93 299.314,1548.49C299.131,1549.06 299.039,1549.98 299.039,1551.24L299.039,1576.04C299.039,1577.31 299.131,1578.23 299.314,1578.79C299.498,1579.36 299.839,1579.74 300.339,1579.94C300.839,1580.14 301.656,1580.28 302.789,1580.34L302.789,1581.34C300.989,1581.24 298.473,1581.19 295.239,1581.19C291.673,1581.19 289.039,1581.24 287.339,1581.34L287.339,1580.34C288.439,1580.28 289.248,1580.14 289.764,1579.94C290.281,1579.74 290.631,1579.36 290.814,1578.79C290.998,1578.23 291.015,1577.31 291.015,1576.04L291.001,1554.96L291.217,1545.94C292.917,1546.04 293.376,1545.99 296.942,1545.99C300.176,1545.99 300.989,1546.04 302.789,1545.94L302.789,1546.94Z" style="fill:white;fill-rule:nonzero;"/>
    </g>
    <g transform="matrix(-0.758137,0,0,0.758137,274.365,-1154.36)">
        <path d="M302.789,1546.94C301.656,1547.01 300.839,1547.14 300.339,1547.34C299.839,1547.54 299.498,1547.93 299.314,1548.49C299.131,1549.06 299.039,1549.98 299.039,1551.24L299.039,1576.04C299.039,1577.31 299.131,1578.23 299.314,1578.79C299.498,1579.36 299.839,1579.74 300.339,1579.94C300.839,1580.14 301.656,1580.28 302.789,1580.34L302.789,1581.34C300.989,1581.24 298.473,1581.19 295.239,1581.19C291.673,1581.19 289.039,1581.24 287.339,1581.34L287.339,1580.34C288.439,1580.28 289.248,1580.14 289.764,1579.94C290.281,1579.74 290.631,1579.36 290.814,1578.79C290.998,1578.23 291.015,1577.31 291.015,1576.04L291.001,1554.96L291.217,1545.94C292.917,1546.04 293.376,1545.99 296.942,1545.99C300.176,1545.99 300.989,1546.04 302.789,1545.94L302.789,1546.94Z" style="fill:white;fill-rule:nonzero;"/>
    </g>
    <g transform="matrix(0.758137,0,0,0.758137,-136.528,-1154.36)">
        <path d="M334.989,1577.14C335.423,1578.24 335.923,1579.04 336.489,1579.54C337.056,1580.04 337.606,1580.31 338.139,1580.34L338.139,1581.34C336.139,1581.24 333.606,1581.19 330.539,1581.19C327.139,1581.19 324.606,1581.24 322.939,1581.34L322.939,1580.34C324.206,1580.28 325.106,1580.12 325.639,1579.87C326.173,1579.62 326.439,1579.18 326.439,1578.54C326.439,1577.94 326.239,1577.14 325.839,1576.14L322.839,1567.94L311.939,1567.94L310.639,1571.39C309.706,1573.79 309.239,1575.64 309.239,1576.94C309.239,1578.18 309.614,1579.04 310.364,1579.52C311.114,1580 312.223,1580.28 313.689,1580.34L313.689,1581.34C311.423,1581.24 309.356,1581.19 307.489,1581.19C305.956,1581.19 304.689,1581.24 303.689,1581.34L303.689,1580.34C305.323,1580.04 306.756,1578.29 307.989,1575.09L319.389,1545.84C319.756,1545.88 320.339,1545.89 321.139,1545.89C321.939,1545.89 322.506,1545.88 322.839,1545.84L334.989,1577.14ZM322.489,1566.94L317.539,1553.44L312.339,1566.94L322.489,1566.94Z" style="fill:white;fill-rule:nonzero;"/>
    </g>
    <g transform="matrix(0.758137,0,0,0.758137,-136.825,-1154.36)">
        <path d="M354.239,1546.94C353.039,1547.01 352.164,1547.14 351.614,1547.34C351.064,1547.54 350.689,1547.93 350.489,1548.49C350.289,1549.06 350.189,1549.98 350.189,1551.24L350.189,1576.64C350.189,1577.71 350.273,1578.49 350.439,1578.97C350.606,1579.45 350.898,1579.78 351.314,1579.94C351.731,1580.11 352.406,1580.19 353.339,1580.19L355.789,1580.19C358.056,1580.19 360.014,1579.18 361.664,1577.14C363.314,1575.11 364.389,1572.41 364.889,1569.04L366.039,1569.04C365.939,1570.18 365.889,1571.64 365.889,1573.44C365.889,1576.64 366.006,1579.28 366.239,1581.34C363.973,1581.24 360.156,1581.19 354.789,1581.19C347.523,1581.19 342.089,1581.24 338.489,1581.34L338.489,1580.34C339.589,1580.28 340.398,1580.14 340.914,1579.94C341.431,1579.74 341.781,1579.36 341.964,1578.79C342.148,1578.23 342.239,1577.31 342.239,1576.04L342.239,1551.24C342.239,1549.98 342.148,1549.06 341.964,1548.49C341.781,1547.93 341.431,1547.54 340.914,1547.34C340.398,1547.14 339.589,1547.01 338.489,1546.94L338.489,1545.94C340.189,1546.04 342.823,1546.09 346.389,1546.09C349.789,1546.09 352.406,1546.04 354.239,1545.94L354.239,1546.94Z" style="fill:white;fill-rule:nonzero;"/>
    </g>
    <g transform="matrix(0.758137,0,0,0.758137,-139.741,-1154.36)">
        <path d="M398.139,1545.24C400.139,1545.24 401.839,1545.53 403.239,1546.09C404.639,1546.66 406.006,1547.46 407.339,1548.49C407.706,1548.79 408.023,1548.94 408.289,1548.94C408.956,1548.94 409.389,1547.94 409.589,1545.94L410.739,1545.94C410.606,1548.21 410.539,1552.24 410.539,1558.04L409.389,1558.04C409.089,1555.58 408.689,1553.69 408.189,1552.39C407.689,1551.09 406.839,1549.96 405.639,1548.99C404.806,1548.19 403.839,1547.59 402.739,1547.17C401.639,1546.75 400.489,1546.54 399.289,1546.54C395.923,1546.54 393.423,1548.19 391.789,1551.47C390.156,1554.75 389.339,1558.84 389.339,1563.74C389.339,1568.61 390.189,1572.68 391.889,1575.94C393.589,1579.21 396.123,1580.84 399.489,1580.84C400.623,1580.84 401.748,1580.64 402.864,1580.22C403.981,1579.8 404.923,1579.19 405.689,1578.39C406.923,1577.46 407.781,1576.29 408.264,1574.89C408.748,1573.49 409.123,1571.44 409.389,1568.74L410.539,1568.74C410.539,1574.78 410.606,1578.98 410.739,1581.34L409.589,1581.34C409.489,1580.28 409.348,1579.52 409.164,1579.07C408.981,1578.62 408.723,1578.39 408.389,1578.39C408.123,1578.39 407.773,1578.53 407.339,1578.79C405.839,1579.86 404.406,1580.67 403.039,1581.22C401.673,1581.77 400.023,1582.04 398.089,1582.04C394.556,1582.04 391.464,1581.33 388.814,1579.89C386.164,1578.46 384.106,1576.39 382.639,1573.67C381.173,1570.95 380.439,1567.71 380.439,1563.94C380.439,1560.28 381.189,1557.03 382.689,1554.19C384.189,1551.36 386.281,1549.16 388.964,1547.59C391.648,1546.03 394.706,1545.24 398.139,1545.24Z" style="fill:white;fill-rule:nonzero;"/>
    </g>
    <g transform="matrix(0.758137,0,0,0.758137,-139.741,-1154.36)">
        <path d="M433.389,1545.24C436.923,1545.24 440.014,1545.96 442.664,1547.39C445.314,1548.83 447.373,1550.9 448.839,1553.62C450.306,1556.34 451.039,1559.58 451.039,1563.34C451.039,1567.01 450.289,1570.26 448.789,1573.09C447.289,1575.93 445.198,1578.13 442.514,1579.69C439.831,1581.26 436.773,1582.04 433.339,1582.04C429.806,1582.04 426.714,1581.33 424.064,1579.89C421.414,1578.46 419.356,1576.39 417.889,1573.67C416.423,1570.95 415.689,1567.71 415.689,1563.94C415.689,1560.28 416.439,1557.03 417.939,1554.19C419.439,1551.36 421.531,1549.16 424.214,1547.59C426.898,1546.03 429.956,1545.24 433.389,1545.24ZM433.189,1546.14C431.356,1546.14 429.739,1546.89 428.339,1548.37C426.939,1549.85 425.864,1551.93 425.114,1554.59C424.364,1557.26 423.989,1560.31 423.989,1563.74C423.989,1567.21 424.414,1570.26 425.264,1572.89C426.114,1575.53 427.264,1577.56 428.714,1578.99C430.164,1580.43 431.773,1581.14 433.539,1581.14C435.373,1581.14 436.989,1580.4 438.389,1578.92C439.789,1577.44 440.864,1575.36 441.614,1572.69C442.364,1570.03 442.739,1566.98 442.739,1563.54C442.739,1560.08 442.314,1557.03 441.464,1554.39C440.614,1551.76 439.464,1549.73 438.014,1548.29C436.564,1546.86 434.956,1546.14 433.189,1546.14Z" style="fill:white;fill-rule:nonzero;"/>
    </g>
    <g transform="matrix(0.758137,0,0,0.758137,-140.63,-1154.36)">
        <path d="M497.489,1546.94C496.356,1547.01 495.539,1547.14 495.039,1547.34C494.539,1547.54 494.198,1547.93 494.014,1548.49C493.831,1549.06 493.739,1549.98 493.739,1551.24L493.739,1576.04C493.739,1577.31 493.831,1578.23 494.014,1578.79C494.198,1579.36 494.548,1579.74 495.064,1579.94C495.581,1580.14 496.389,1580.28 497.489,1580.34L497.489,1581.34C495.656,1581.24 493.039,1581.19 489.639,1581.19C486.073,1581.19 483.439,1581.24 481.739,1581.34L481.739,1580.34C482.939,1580.28 483.814,1580.14 484.364,1579.94C484.914,1579.74 485.289,1579.36 485.489,1578.79C485.689,1578.23 485.789,1577.31 485.789,1576.04L485.789,1549.89L473.739,1581.39L472.939,1581.39L459.439,1549.19L459.439,1573.14C459.439,1575.11 459.539,1576.55 459.739,1577.47C459.939,1578.39 460.373,1579.05 461.039,1579.47C461.706,1579.89 462.789,1580.18 464.289,1580.34L464.289,1581.34C462.989,1581.24 461.189,1581.19 458.889,1581.19C457.056,1581.19 455.606,1581.24 454.539,1581.34L454.539,1580.34C455.639,1580.18 456.448,1579.89 456.964,1579.49C457.481,1579.09 457.831,1578.46 458.014,1577.59C458.198,1576.73 458.289,1575.44 458.289,1573.74L458.289,1551.24C458.289,1549.98 458.198,1549.06 458.014,1548.49C457.831,1547.93 457.481,1547.54 456.964,1547.34C456.448,1547.14 455.639,1547.01 454.539,1546.94L454.539,1545.94C455.606,1546.04 457.056,1546.09 458.889,1546.09C461.956,1546.09 464.589,1546.04 466.789,1545.94L476.889,1570.29L486.089,1546.09L489.639,1546.09C493.039,1546.09 495.656,1546.04 497.489,1545.94L497.489,1546.94Z" style="fill:white;fill-rule:nonzero;"/>
    </g>
    <g transform="matrix(0.758137,0,0,0.758137,-140.63,-1154.36)">
        <path d="M543.839,1546.94C542.706,1547.01 541.889,1547.14 541.389,1547.34C540.889,1547.54 540.548,1547.93 540.364,1548.49C540.181,1549.06 540.089,1549.98 540.089,1551.24L540.089,1576.04C540.089,1577.31 540.181,1578.23 540.364,1578.79C540.548,1579.36 540.898,1579.74 541.414,1579.94C541.931,1580.14 542.739,1580.28 543.839,1580.34L543.839,1581.34C542.006,1581.24 539.389,1581.19 535.989,1581.19C532.423,1581.19 529.789,1581.24 528.089,1581.34L528.089,1580.34C529.289,1580.28 530.164,1580.14 530.714,1579.94C531.264,1579.74 531.639,1579.36 531.839,1578.79C532.039,1578.23 532.139,1577.31 532.139,1576.04L532.139,1549.89L520.089,1581.39L519.289,1581.39L505.789,1549.19L505.789,1573.14C505.789,1575.11 505.889,1576.55 506.089,1577.47C506.289,1578.39 506.723,1579.05 507.389,1579.47C508.056,1579.89 509.139,1580.18 510.639,1580.34L510.639,1581.34C509.339,1581.24 507.539,1581.19 505.239,1581.19C503.406,1581.19 501.956,1581.24 500.889,1581.34L500.889,1580.34C501.989,1580.18 502.798,1579.89 503.314,1579.49C503.831,1579.09 504.181,1578.46 504.364,1577.59C504.548,1576.73 504.639,1575.44 504.639,1573.74L504.639,1551.24C504.639,1549.98 504.548,1549.06 504.364,1548.49C504.181,1547.93 503.831,1547.54 503.314,1547.34C502.798,1547.14 501.989,1547.01 500.889,1546.94L500.889,1545.94C501.956,1546.04 503.406,1546.09 505.239,1546.09C508.306,1546.09 510.939,1546.04 513.139,1545.94L523.239,1570.29L532.439,1546.09L535.989,1546.09C539.389,1546.09 542.006,1546.04 543.839,1545.94L543.839,1546.94Z" style="fill:white;fill-rule:nonzero;"/>
    </g>
    <g transform="matrix(0.758137,0,0,0.758137,-140.63,-1154.36)">
        <path d="M562.639,1546.94C561.506,1547.01 560.689,1547.14 560.189,1547.34C559.689,1547.54 559.348,1547.93 559.164,1548.49C558.981,1549.06 558.889,1549.98 558.889,1551.24L558.889,1576.04C558.889,1577.31 558.981,1578.23 559.164,1578.79C559.348,1579.36 559.689,1579.74 560.189,1579.94C560.689,1580.14 561.506,1580.28 562.639,1580.34L562.639,1581.34C560.839,1581.24 558.323,1581.19 555.089,1581.19C551.523,1581.19 548.889,1581.24 547.189,1581.34L547.189,1580.34C548.289,1580.28 549.098,1580.14 549.614,1579.94C550.131,1579.74 550.481,1579.36 550.664,1578.79C550.848,1578.23 550.939,1577.31 550.939,1576.04L550.939,1551.24C550.939,1549.98 550.848,1549.06 550.664,1548.49C550.481,1547.93 550.131,1547.54 549.614,1547.34C549.098,1547.14 548.289,1547.01 547.189,1546.94L547.189,1545.94C548.889,1546.04 551.523,1546.09 555.089,1546.09C558.323,1546.09 560.839,1546.04 562.639,1545.94L562.639,1546.94Z" style="fill:white;fill-rule:nonzero;"/>
    </g>
    <g transform="matrix(0.758137,0,0,0.758137,-140.63,-1154.36)">
        <path d="M596.389,1545.94C596.156,1549.11 596.039,1551.94 596.039,1554.44C596.039,1556.01 596.089,1557.28 596.189,1558.24L595.039,1558.24C594.239,1554.14 593.148,1551.26 591.764,1549.59C590.381,1547.93 588.489,1547.09 586.089,1547.09L584.939,1547.09L584.939,1575.64C584.939,1577.04 585.081,1578.06 585.364,1578.69C585.648,1579.33 586.148,1579.75 586.864,1579.97C587.581,1580.19 588.723,1580.31 590.289,1580.34L590.289,1581.34C586.089,1581.24 582.923,1581.19 580.789,1581.19C578.689,1581.19 575.639,1581.24 571.639,1581.34L571.639,1580.34C573.206,1580.31 574.348,1580.19 575.064,1579.97C575.781,1579.75 576.281,1579.33 576.564,1578.69C576.848,1578.06 576.989,1577.04 576.989,1575.64L576.989,1547.09L575.889,1547.09C574.289,1547.09 572.931,1547.44 571.814,1548.14C570.698,1548.84 569.739,1550 568.939,1551.62C568.139,1553.24 567.456,1555.44 566.889,1558.24L565.739,1558.24C565.839,1557.28 565.889,1556.01 565.889,1554.44C565.889,1551.94 565.773,1549.11 565.539,1545.94C568.573,1546.04 573.723,1546.09 580.989,1546.09C588.256,1546.09 593.389,1546.04 596.389,1545.94Z" style="fill:white;fill-rule:nonzero;"/>
    </g>
</svg>
