<?xml version="1.0" encoding="UTF-8" standalone="no"?>
<!DOCTYPE svg PUBLIC "-//W3C//DTD SVG 1.1//EN" "http://www.w3.org/Graphics/SVG/1.1/DTD/svg11.dtd">
<svg width="100%" height="100%" viewBox="0 0 316 60" version="1.1" xmlns="http://www.w3.org/2000/svg" xmlns:xlink="http://www.w3.org/1999/xlink" xml:space="preserve" xmlns:serif="http://www.serif.com/" style="fill-rule:evenodd;clip-rule:evenodd;stroke-linejoin:round;stroke-miterlimit:1.41421;">
    <g transform="matrix(0.730049,0,0,0.730049,-130.701,-1111.63)">
        <path d="M197.189,1546.89C196.123,1546.96 195.348,1547.09 194.864,1547.29C194.381,1547.49 194.056,1547.88 193.889,1548.44C193.723,1549.01 193.639,1549.93 193.639,1551.19L193.639,1575.99C193.639,1577.26 193.731,1578.18 193.914,1578.74C194.098,1579.31 194.423,1579.69 194.889,1579.89C195.356,1580.09 196.123,1580.23 197.189,1580.29L197.189,1581.29C195.256,1581.19 192.473,1581.14 188.839,1581.14C184.806,1581.14 181.839,1581.19 179.939,1581.29L179.939,1580.29C181.006,1580.23 181.781,1580.09 182.264,1579.89C182.748,1579.69 183.073,1579.31 183.239,1578.74C183.406,1578.18 183.489,1577.26 183.489,1575.99L183.489,1551.19C183.489,1549.93 183.398,1549.01 183.214,1548.44C183.031,1547.88 182.706,1547.49 182.239,1547.29C181.773,1547.09 181.006,1546.96 179.939,1546.89L179.939,1545.89C181.839,1545.99 184.806,1546.04 188.839,1546.04C192.439,1546.04 195.223,1545.99 197.189,1545.89L197.189,1546.89Z" style="fill:rgb(127,127,127);fill-rule:nonzero;"/>
    </g>
    <g transform="matrix(0.730049,0,0,0.730049,-130.701,-1111.63)">
        <path d="M233.989,1546.89C232.956,1547.13 232.189,1547.49 231.689,1547.97C231.189,1548.45 230.856,1549.19 230.689,1550.19C230.523,1551.19 230.439,1552.69 230.439,1554.69L230.439,1581.29C229.773,1581.23 229.223,1581.19 228.789,1581.19C228.423,1581.19 227.806,1581.23 226.939,1581.29L204.789,1557.09L204.789,1571.49C204.789,1573.96 204.889,1575.74 205.089,1576.82C205.289,1577.9 205.731,1578.69 206.414,1579.19C207.098,1579.69 208.239,1580.06 209.839,1580.29L209.839,1581.29C208.473,1581.19 206.606,1581.14 204.239,1581.14C202.473,1581.14 201.089,1581.19 200.089,1581.29L200.089,1580.29C201.123,1580.06 201.889,1579.7 202.389,1579.22C202.889,1578.74 203.223,1577.99 203.389,1576.99C203.556,1575.99 203.639,1574.49 203.639,1572.49L203.639,1551.19C203.639,1549.93 203.548,1549.01 203.364,1548.44C203.181,1547.88 202.856,1547.49 202.389,1547.29C201.923,1547.09 201.156,1546.96 200.089,1546.89L200.089,1545.89C201.089,1545.99 202.473,1546.04 204.239,1546.04C206.039,1546.04 207.573,1545.99 208.839,1545.89L229.289,1567.49L229.289,1555.69C229.289,1553.23 229.189,1551.45 228.989,1550.37C228.789,1549.29 228.348,1548.49 227.664,1547.99C226.981,1547.49 225.839,1547.13 224.239,1546.89L224.239,1545.89C225.606,1545.99 227.473,1546.04 229.839,1546.04C231.606,1546.04 232.989,1545.99 233.989,1545.89L233.989,1546.89Z" style="fill:rgb(127,127,127);fill-rule:nonzero;"/>
    </g>
    <g transform="matrix(0.730049,0,0,0.730049,-130.987,-1111.63)">
        <path d="M289.039,1545.89C288.806,1549.59 288.689,1552.89 288.689,1555.79C288.689,1557.33 288.739,1558.53 288.839,1559.39L287.689,1559.39C286.589,1555.03 285.173,1551.88 283.439,1549.94C281.706,1548.01 279.839,1547.04 277.839,1547.04L277.789,1547.04L277.789,1575.64C277.789,1577.04 277.931,1578.06 278.214,1578.69C278.498,1579.33 279.014,1579.75 279.764,1579.97C280.514,1580.19 281.706,1580.29 283.339,1580.29L283.339,1581.29C278.639,1581.19 274.989,1581.14 272.389,1581.14C270.023,1581.14 266.589,1581.19 262.089,1581.29L262.089,1580.29C263.723,1580.29 264.914,1580.19 265.664,1579.97C266.414,1579.75 266.931,1579.33 267.214,1578.69C267.498,1578.06 267.639,1577.04 267.639,1575.64L267.639,1547.04L267.589,1547.04C265.556,1547.04 263.681,1548 261.964,1549.92C260.248,1551.84 258.839,1554.99 257.739,1559.39L256.589,1559.39C256.689,1558.53 256.739,1557.33 256.739,1555.79C256.739,1552.89 256.623,1549.59 256.389,1545.89C259.556,1545.99 265.006,1546.04 272.739,1546.04C280.439,1546.04 285.873,1545.99 289.039,1545.89Z" style="fill:rgb(127,127,127);fill-rule:nonzero;"/>
    </g>
    <g transform="matrix(0.730049,0,0,0.730049,-131.558,-1111.63)">
        <path d="M308.839,1546.89C307.773,1546.96 306.998,1547.09 306.514,1547.29C306.031,1547.49 305.706,1547.88 305.539,1548.44C305.373,1549.01 305.289,1549.93 305.289,1551.19L305.289,1575.99C305.289,1577.26 305.381,1578.18 305.564,1578.74C305.748,1579.31 306.073,1579.69 306.539,1579.89C307.006,1580.09 307.773,1580.23 308.839,1580.29L308.839,1581.29C306.906,1581.19 304.123,1581.14 300.489,1581.14C296.456,1581.14 293.489,1581.19 291.589,1581.29L291.589,1580.29C292.656,1580.23 293.431,1580.09 293.914,1579.89C294.398,1579.69 294.723,1579.31 294.889,1578.74C295.056,1578.18 295.139,1577.26 295.139,1575.99L295.139,1551.19C295.139,1549.93 295.208,1546.02 295.208,1546.02C298.816,1546.07 306.873,1545.99 308.839,1545.89L308.839,1546.89Z" style="fill:rgb(127,127,127);fill-rule:nonzero;"/>
    </g>
    <g transform="matrix(-0.730049,0,0,0.730049,267.381,-1111.63)">
        <path d="M308.839,1546.89C307.773,1546.96 306.998,1547.09 306.514,1547.29C306.031,1547.49 305.706,1547.88 305.539,1548.44C305.373,1549.01 305.289,1549.93 305.289,1551.19L305.289,1575.99C305.289,1577.26 305.381,1578.18 305.564,1578.74C305.748,1579.31 306.073,1579.69 306.539,1579.89C307.006,1580.09 307.773,1580.23 308.839,1580.29L308.839,1581.29C306.906,1581.19 304.123,1581.14 300.489,1581.14C296.456,1581.14 293.489,1581.19 291.589,1581.29L291.589,1580.29C292.656,1580.23 293.431,1580.09 293.914,1579.89C294.398,1579.69 294.723,1579.31 294.889,1578.74C295.056,1578.18 295.139,1577.26 295.139,1575.99L295.139,1551.19C295.139,1549.93 295.208,1546.02 295.208,1546.02C298.816,1546.07 306.873,1545.99 308.839,1545.89L308.839,1546.89Z" style="fill:rgb(127,127,127);fill-rule:nonzero;"/>
    </g>
    <g transform="matrix(-0.730049,0,0,0.730049,502.585,-1111.63)">
        <path d="M308.839,1546.89C307.773,1546.96 306.998,1547.09 306.514,1547.29C306.031,1547.49 305.706,1547.88 305.539,1548.44C305.373,1549.01 305.289,1549.93 305.289,1551.19L305.289,1575.99C305.289,1577.26 305.381,1578.18 305.564,1578.74C305.748,1579.31 306.073,1579.69 306.539,1579.89C307.006,1580.09 307.773,1580.23 308.839,1580.29L308.839,1581.29C306.906,1581.19 304.123,1581.14 300.489,1581.14C296.456,1581.14 293.489,1581.19 291.589,1581.29L291.589,1580.29C292.656,1580.23 293.431,1580.09 293.914,1579.89C294.398,1579.69 294.723,1579.31 294.889,1578.74C295.056,1578.18 295.139,1577.26 295.139,1575.99L295.139,1551.19C295.139,1549.93 295.208,1546.02 295.208,1546.02C298.816,1546.07 306.873,1545.99 308.839,1545.89L308.839,1546.89Z" style="fill:rgb(127,127,127);fill-rule:nonzero;"/>
    </g>
    <g transform="matrix(0.730049,0,0,0.730049,-131.558,-1111.63)">
        <path d="M342.239,1577.09C342.673,1578.16 343.148,1578.95 343.664,1579.47C344.181,1579.99 344.689,1580.26 345.189,1580.29L345.189,1581.29C342.789,1581.19 339.756,1581.14 336.089,1581.14C332.289,1581.14 329.489,1581.19 327.689,1581.29L327.689,1580.29C328.956,1580.23 329.856,1580.07 330.389,1579.82C330.923,1579.57 331.189,1579.13 331.189,1578.49C331.189,1577.89 330.989,1577.09 330.589,1576.09L327.639,1567.89L317.539,1567.89L316.689,1570.14C315.589,1572.98 315.039,1575.14 315.039,1576.64C315.039,1578.01 315.423,1578.94 316.189,1579.44C316.956,1579.94 318.089,1580.23 319.589,1580.29L319.589,1581.29C317.089,1581.19 314.906,1581.14 313.039,1581.14C311.473,1581.14 310.189,1581.19 309.189,1581.29L309.189,1580.29C310.023,1580.16 310.806,1579.64 311.539,1578.74C312.273,1577.84 313.023,1576.41 313.789,1574.44L324.889,1545.89C325.956,1545.96 326.839,1545.99 327.539,1545.99C328.206,1545.99 329.073,1545.96 330.139,1545.89L342.239,1577.09ZM327.289,1566.89L322.739,1554.39L317.939,1566.89L327.289,1566.89Z" style="fill:rgb(127,127,127);fill-rule:nonzero;"/>
    </g>
    <g transform="matrix(0.730049,0,0,0.730049,-131.558,-1111.63)">
        <path d="M362.989,1546.89C361.789,1546.96 360.914,1547.09 360.364,1547.29C359.814,1547.49 359.439,1547.88 359.239,1548.44C359.039,1549.01 358.939,1549.93 358.939,1551.19L358.939,1576.99C358.939,1577.93 359.006,1578.61 359.139,1579.04C359.273,1579.48 359.506,1579.77 359.839,1579.92C360.173,1580.07 360.723,1580.14 361.489,1580.14L363.139,1580.14C364.306,1580.14 365.573,1579.56 366.939,1578.39C368.306,1577.23 369.539,1575.69 370.639,1573.77C371.739,1571.85 372.473,1569.86 372.839,1567.79L373.989,1567.79C373.889,1568.99 373.839,1570.53 373.839,1572.39C373.839,1575.99 373.956,1578.96 374.189,1581.29C371.923,1581.19 368.106,1581.14 362.739,1581.14C354.939,1581.14 349.106,1581.19 345.239,1581.29L345.239,1580.29C346.306,1580.23 347.081,1580.09 347.564,1579.89C348.048,1579.69 348.373,1579.31 348.539,1578.74C348.706,1578.18 348.789,1577.26 348.789,1575.99L348.789,1551.19C348.789,1549.93 348.698,1549.01 348.514,1548.44C348.331,1547.88 348.006,1547.49 347.539,1547.29C347.073,1547.09 346.306,1546.96 345.239,1546.89L345.239,1545.89C347.139,1545.99 350.106,1546.04 354.139,1546.04C357.973,1546.04 360.923,1545.99 362.989,1545.89L362.989,1546.89Z" style="fill:rgb(127,127,127);fill-rule:nonzero;"/>
    </g>
    <g transform="matrix(0.730049,0,0,0.730049,-132.985,-1111.63)">
        <path d="M405.789,1545.19C407.789,1545.19 409.489,1545.48 410.889,1546.04C412.289,1546.61 413.656,1547.41 414.989,1548.44C415.323,1548.74 415.639,1548.89 415.939,1548.89C416.606,1548.89 417.039,1547.89 417.239,1545.89L418.389,1545.89C418.256,1548.26 418.189,1552.43 418.189,1558.39L417.039,1558.39C416.806,1555.73 416.373,1553.63 415.739,1552.09C415.106,1550.56 414.006,1549.28 412.439,1548.24C410.873,1547.24 409.323,1546.74 407.789,1546.74C404.323,1546.74 401.889,1548.41 400.489,1551.74C399.089,1555.08 398.389,1559.06 398.389,1563.69C398.389,1568.33 399.089,1572.31 400.489,1575.64C401.889,1578.98 404.323,1580.64 407.789,1580.64C409.323,1580.64 410.873,1580.14 412.439,1579.14C414.006,1578.18 415.106,1576.88 415.739,1575.24C416.373,1573.61 416.806,1571.29 417.039,1568.29L418.189,1568.29C418.189,1574.53 418.256,1578.86 418.389,1581.29L417.239,1581.29C417.139,1580.23 416.998,1579.47 416.814,1579.02C416.631,1578.57 416.373,1578.34 416.039,1578.34C415.773,1578.34 415.423,1578.48 414.989,1578.74C413.489,1579.81 412.056,1580.62 410.689,1581.17C409.323,1581.72 407.673,1581.99 405.739,1581.99C401.973,1581.99 398.673,1581.28 395.839,1579.84C393.006,1578.41 390.806,1576.34 389.239,1573.62C387.673,1570.9 386.889,1567.66 386.889,1563.89C386.889,1560.23 387.689,1556.98 389.289,1554.14C390.889,1551.31 393.123,1549.11 395.989,1547.54C398.856,1545.98 402.123,1545.19 405.789,1545.19Z" style="fill:rgb(127,127,127);fill-rule:nonzero;"/>
    </g>
    <g transform="matrix(0.730049,0,0,0.730049,-132.985,-1111.63)">
        <path d="M441.639,1545.19C445.406,1545.19 448.706,1545.91 451.539,1547.34C454.373,1548.78 456.573,1550.85 458.139,1553.57C459.706,1556.29 460.489,1559.53 460.489,1563.29C460.489,1566.96 459.689,1570.21 458.089,1573.04C456.489,1575.88 454.256,1578.08 451.389,1579.64C448.523,1581.21 445.256,1581.99 441.589,1581.99C437.823,1581.99 434.523,1581.28 431.689,1579.84C428.856,1578.41 426.656,1576.34 425.089,1573.62C423.523,1570.9 422.739,1567.66 422.739,1563.89C422.739,1560.23 423.539,1556.98 425.139,1554.14C426.739,1551.31 428.973,1549.11 431.839,1547.54C434.706,1545.98 437.973,1545.19 441.639,1545.19ZM441.439,1546.09C439.806,1546.09 438.364,1546.84 437.114,1548.32C435.864,1549.8 434.906,1551.88 434.239,1554.54C433.573,1557.21 433.239,1560.26 433.239,1563.69C433.239,1567.16 433.623,1570.21 434.389,1572.84C435.156,1575.48 436.189,1577.51 437.489,1578.94C438.789,1580.38 440.223,1581.09 441.789,1581.09C443.423,1581.09 444.864,1580.35 446.114,1578.87C447.364,1577.39 448.323,1575.31 448.989,1572.64C449.656,1569.98 449.989,1566.93 449.989,1563.49C449.989,1560.03 449.606,1556.98 448.839,1554.34C448.073,1551.71 447.039,1549.68 445.739,1548.24C444.439,1546.81 443.006,1546.09 441.439,1546.09Z" style="fill:rgb(127,127,127);fill-rule:nonzero;"/>
    </g>
    <g transform="matrix(0.730049,0,0,0.730049,-132.985,-1111.63)">
        <path d="M508.739,1546.89C507.673,1546.96 506.898,1547.09 506.414,1547.29C505.931,1547.49 505.606,1547.88 505.439,1548.44C505.273,1549.01 505.189,1549.93 505.189,1551.19L505.189,1575.99C505.189,1577.26 505.281,1578.18 505.464,1578.74C505.648,1579.31 505.973,1579.69 506.439,1579.89C506.906,1580.09 507.673,1580.23 508.739,1580.29L508.739,1581.29C506.706,1581.19 503.756,1581.14 499.889,1581.14C495.856,1581.14 492.889,1581.19 490.989,1581.29L490.989,1580.29C492.189,1580.23 493.064,1580.09 493.614,1579.89C494.164,1579.69 494.539,1579.31 494.739,1578.74C494.939,1578.18 495.039,1577.26 495.039,1575.99L495.039,1550.44L482.989,1581.24L482.189,1581.24L468.089,1549.14L468.089,1571.49C468.089,1573.96 468.189,1575.74 468.389,1576.82C468.589,1577.9 469.031,1578.69 469.714,1579.19C470.398,1579.69 471.539,1580.06 473.139,1580.29L473.139,1581.29C471.773,1581.19 469.906,1581.14 467.539,1581.14C465.773,1581.14 464.389,1581.19 463.389,1581.29L463.389,1580.29C464.423,1580.06 465.189,1579.7 465.689,1579.22C466.189,1578.74 466.523,1577.99 466.689,1576.99C466.856,1575.99 466.939,1574.49 466.939,1572.49L466.939,1551.19C466.939,1549.93 466.848,1549.01 466.664,1548.44C466.481,1547.88 466.156,1547.49 465.689,1547.29C465.223,1547.09 464.456,1546.96 463.389,1546.89L463.389,1545.89C464.389,1545.99 465.773,1546.04 467.539,1546.04C471.539,1546.04 474.989,1545.99 477.889,1545.89L487.339,1567.14L495.539,1546.04L499.889,1546.04C503.756,1546.04 506.706,1545.99 508.739,1545.89L508.739,1546.89Z" style="fill:rgb(127,127,127);fill-rule:nonzero;"/>
    </g>
    <g transform="matrix(0.730049,0,0,0.730049,-132.414,-1111.63)">
        <path d="M556.989,1546.89C555.923,1546.96 555.148,1547.09 554.664,1547.29C554.181,1547.49 553.856,1547.88 553.689,1548.44C553.523,1549.01 553.439,1549.93 553.439,1551.19L553.439,1575.99C553.439,1577.26 553.531,1578.18 553.714,1578.74C553.898,1579.31 554.223,1579.69 554.689,1579.89C555.156,1580.09 555.923,1580.23 556.989,1580.29L556.989,1581.29C554.956,1581.19 552.006,1581.14 548.139,1581.14C544.106,1581.14 541.139,1581.19 539.239,1581.29L539.239,1580.29C540.439,1580.23 541.314,1580.09 541.864,1579.89C542.414,1579.69 542.789,1579.31 542.989,1578.74C543.189,1578.18 543.289,1577.26 543.289,1575.99L543.289,1550.44L531.239,1581.24L530.439,1581.24L516.339,1549.14L516.339,1571.49C516.339,1573.96 516.439,1575.74 516.639,1576.82C516.839,1577.9 517.281,1578.69 517.964,1579.19C518.648,1579.69 519.789,1580.06 521.389,1580.29L521.389,1581.29C520.023,1581.19 518.156,1581.14 515.789,1581.14C514.023,1581.14 512.639,1581.19 511.639,1581.29L511.639,1580.29C512.673,1580.06 513.439,1579.7 513.939,1579.22C514.439,1578.74 514.773,1577.99 514.939,1576.99C515.106,1575.99 515.189,1574.49 515.189,1572.49L515.189,1551.19C515.189,1549.93 515.098,1549.01 514.914,1548.44C514.731,1547.88 514.406,1547.49 513.939,1547.29C513.473,1547.09 512.706,1546.96 511.639,1546.89L511.639,1545.89C512.639,1545.99 514.023,1546.04 515.789,1546.04C519.789,1546.04 523.239,1545.99 526.139,1545.89L535.589,1567.14L543.789,1546.04L548.139,1546.04C552.006,1546.04 554.956,1545.99 556.989,1545.89L556.989,1546.89Z" style="fill:rgb(127,127,127);fill-rule:nonzero;"/>
    </g>
    <g transform="matrix(0.730049,0,0,0.730049,-132.414,-1111.63)">
        <path d="M612.239,1545.89C612.006,1549.59 611.889,1552.89 611.889,1555.79C611.889,1557.33 611.939,1558.53 612.039,1559.39L610.889,1559.39C609.789,1555.03 608.373,1551.88 606.639,1549.94C604.906,1548.01 603.039,1547.04 601.039,1547.04L600.989,1547.04L600.989,1575.64C600.989,1577.04 601.131,1578.06 601.414,1578.69C601.698,1579.33 602.214,1579.75 602.964,1579.97C603.714,1580.19 604.906,1580.29 606.539,1580.29L606.539,1581.29C601.839,1581.19 598.189,1581.14 595.589,1581.14C593.223,1581.14 589.789,1581.19 585.289,1581.29L585.289,1580.29C586.923,1580.29 588.114,1580.19 588.864,1579.97C589.614,1579.75 590.131,1579.33 590.414,1578.69C590.698,1578.06 590.839,1577.04 590.839,1575.64L590.839,1547.04L590.789,1547.04C588.756,1547.04 586.881,1548 585.164,1549.92C583.448,1551.84 582.039,1554.99 580.939,1559.39L579.789,1559.39C579.889,1558.53 579.939,1557.33 579.939,1555.79C579.939,1552.89 579.823,1549.59 579.589,1545.89C582.756,1545.99 588.206,1546.04 595.939,1546.04C603.639,1546.04 609.073,1545.99 612.239,1545.89Z" style="fill:rgb(127,127,127);fill-rule:nonzero;"/>
    </g>
</svg>
